<?xml version="1.0" encoding="UTF-8" standalone="no"?>
<svg
   version="1.0"
   width="512.000000pt"
   height="512.000000pt"
   viewBox="0 0 512.000000 512.000000"
   preserveAspectRatio="xMidYMid meet"
   id="svg4"
   sodipodi:docname="dashboard-_3_.svg"
   inkscape:version="1.4 (86a8ad7, 2024-10-11)"
   xmlns:inkscape="http://www.inkscape.org/namespaces/inkscape"
   xmlns:sodipodi="http://sodipodi.sourceforge.net/DTD/sodipodi-0.dtd"
   xmlns="http://www.w3.org/2000/svg"
   xmlns:svg="http://www.w3.org/2000/svg">
  <defs
     id="defs4" />
  <sodipodi:namedview
     id="namedview4"
     pagecolor="#ffffff"
     bordercolor="#000000"
     borderopacity="0.25"
     inkscape:showpageshadow="2"
     inkscape:pageopacity="0.0"
     inkscape:pagecheckerboard="0"
     inkscape:deskcolor="#d1d1d1"
     inkscape:document-units="pt"
     inkscape:zoom="1.1938477"
     inkscape:cx="341.33333"
     inkscape:cy="341.33333"
     inkscape:window-width="1920"
     inkscape:window-height="1017"
     inkscape:window-x="-8"
     inkscape:window-y="-8"
     inkscape:window-maximized="1"
     inkscape:current-layer="svg4" />
  <g
     transform="translate(0.000000,512.000000) scale(0.100000,-0.100000)"
     fill="#000000"
     stroke="none"
     id="g4"
     style="fill:#ffffff;fill-opacity:1">
    <path
       d="M610 4784 c-30 -8 -73 -26 -96 -39 -61 -36 -139 -126 -166 -193 l-23 -57 0 -895 0 -895 23 -57 c27 -67 103 -155 167 -192 96 -57 100 -57 871 -54 l709 3 57 23 c67 27 155 103 192 166 57 97 56 87 56 1006 0 919 1 909 -56 1006 -37 63 -125 139 -192 166 l-57 23 -715 2 c-606 2 -723 0 -770 -13z m1445 -329 l25 -24 0 -831 0 -831 -25 -24 -24 -25 -671 0 -671 0 -24 25 -25 24 0 831 0 831 25 24 24 25 671 0 671 0 24 -25z"
       id="path1"
       style="fill:#ffffff;fill-opacity:1" />
    <path
       d="M3010 4784 c-30 -8 -73 -26 -96 -39 -61 -36 -139 -126 -166 -193 l-23 -57 0 -575 0 -575 23 -57 c27 -67 103 -155 167 -192 96 -57 100 -57 871 -54 l709 3 57 23 c67 27 155 103 192 166 54 93 56 116 56 686 0 570 -2 593 -56 686 -37 63 -125 139 -192 166 l-57 23 -715 2 c-606 2 -723 0 -770 -13z m1445 -329 l25 -24 0 -511 0 -511 -25 -24 -24 -25 -671 0 -671 0 -24 25 -25 24 0 511 0 511 25 24 24 25 671 0 671 0 24 -25z"
       id="path2"
       style="fill:#ffffff;fill-opacity:1" />
    <path
       d="M3010 2704 c-30 -8 -73 -26 -96 -39 -61 -36 -139 -126 -166 -193 l-23 -57 0 -895 0 -895 23 -57 c27 -67 103 -155 167 -192 96 -57 100 -57 871 -54 l709 3 57 23 c67 27 155 103 192 166 57 97 56 87 56 1006 0 919 1 909 -56 1006 -37 63 -125 139 -192 166 l-57 23 -715 2 c-606 2 -723 0 -770 -13z m1445 -329 l25 -24 0 -831 0 -831 -25 -24 -24 -25 -671 0 -671 0 -24 25 -25 24 0 831 0 831 25 24 24 25 671 0 671 0 24 -25z"
       id="path3"
       style="fill:#ffffff;fill-opacity:1" />
    <path
       d="M610 2064 c-30 -8 -73 -26 -96 -39 -61 -36 -139 -126 -166 -193 l-23 -57 0 -575 0 -575 23 -57 c27 -67 103 -155 167 -192 96 -57 100 -57 871 -54 l709 3 57 23 c67 27 155 103 192 166 54 93 56 116 56 686 0 570 -2 593 -56 686 -37 63 -125 139 -192 166 l-57 23 -715 2 c-606 2 -723 0 -770 -13z m1445 -329 l25 -24 0 -511 0 -511 -25 -24 -24 -25 -671 0 -671 0 -24 25 -25 24 0 511 0 511 25 24 24 25 671 0 671 0 24 -25z"
       id="path4"
       style="fill:#ffffff;fill-opacity:1" />
  </g>
</svg>
